<svg width="25" height="24" viewBox="0 0 25 24" fill="none" xmlns="http://www.w3.org/2000/svg">
<path d="M17.5 17C16.3954 17 15.5 17.8954 15.5 19C15.5 20.1046 16.3954 21 17.5 21C18.6046 21 19.5 20.1046 19.5 19C19.5 17.8954 18.6046 17 17.5 17ZM17.5 17H9.79395C9.33288 17 9.10193 17 8.91211 16.918C8.74466 16.8456 8.59938 16.7291 8.49354 16.5805C8.3749 16.414 8.32719 16.1913 8.23274 15.7505L5.77148 4.26465C5.67484 3.81363 5.62587 3.58838 5.50586 3.41992C5.40002 3.27135 5.25477 3.15441 5.08732 3.08205C4.89746 3 4.66779 3 4.20653 3H3.5M6.5 6H19.3732C20.095 6 20.4555 6 20.6978 6.15036C20.91 6.28206 21.0653 6.48862 21.133 6.729C21.2104 7.00343 21.111 7.34996 20.911 8.04346L19.5264 12.8435C19.4068 13.2581 19.3469 13.465 19.2256 13.6189C19.1185 13.7547 18.9772 13.861 18.817 13.9263C18.6361 14 18.4211 14 17.9921 14H8.23047M8.5 21C7.39543 21 6.5 20.1046 6.5 19C6.5 17.8954 7.39543 17 8.5 17C9.60457 17 10.5 17.8954 10.5 19C10.5 20.1046 9.60457 21 8.5 21Z" stroke="#179F3D" stroke-width="2" stroke-linecap="round" stroke-linejoin="round"/>
</svg>
